<svg width="256" height="256" viewBox="0 0 256 256" fill="none" xmlns="http://www.w3.org/2000/svg">
<path d="M230.315 213.333H25.6853C11.52 213.333 0 201.899 0 187.829V68.1707C0 54.1013 11.52 42.6667 25.6853 42.6667H230.315C244.48 42.6667 256 54.1013 256 68.1707V187.84C256 201.899 244.48 213.333 230.315 213.333ZM25.6853 58.6667C20.3413 58.6667 16 62.9227 16 68.1707V187.84C16 193.077 20.3413 197.344 25.6853 197.344H230.315C235.659 197.344 240 193.088 240 187.84V68.1707C240 62.9333 235.659 58.6667 230.315 58.6667H25.6853Z" fill="black"/>
<path d="M186.955 170.667C185.035 170.667 183.125 169.984 181.6 168.619L151.979 141.952C148.693 138.997 148.427 133.931 151.381 130.645C154.347 127.381 159.403 127.104 162.688 130.048L186.912 151.851L210.603 130.101C213.856 127.136 218.901 127.328 221.909 130.592C224.896 133.845 224.683 138.901 221.419 141.899L192.373 168.565C190.848 169.963 188.896 170.667 186.955 170.667ZM120 170.667C115.584 170.667 112 167.083 112 162.667V114.176L85.952 143.136C82.912 146.507 77.0987 146.507 74.0587 143.136L48 114.176V162.667C48 167.083 44.416 170.667 40 170.667C35.584 170.667 32 167.083 32 162.667V93.3333C32 90.016 34.0373 87.0507 37.1307 85.8667C40.224 84.6933 43.7333 85.5253 45.952 87.9787L80 125.824L114.048 87.9787C116.267 85.5253 119.776 84.672 122.859 85.8667C125.963 87.0507 128 90.016 128 93.3333V162.667C128 167.083 124.416 170.667 120 170.667Z" fill="black"/>
<path d="M186.667 170.667C182.251 170.667 178.667 167.083 178.667 162.667V93.3333C178.667 88.9173 182.251 85.3333 186.667 85.3333C191.083 85.3333 194.667 88.9173 194.667 93.3333V162.667C194.667 167.083 191.083 170.667 186.667 170.667Z" fill="black"/>
</svg>
